Coordinates
version=1
nRows=13
nColumns=30
inDegrees=yes

Units are S.I. units (second, meters, Newtons, ...)
Angles are in degrees.

endheader
time	floatyaw	floatroll	floatpitch	floatx	floaty	floatz	pro_sup_l	deviation_l	flexion_l	cmc_flexion_l	cmc_abduction_l	mp_flexion_l	ip_flexion_l	2mcp_flexion_l	2mcp_abduction_l	2pm_flexion_l	2md_flexion_l	3mcp_flexion_l	3mcp_abduction_l	3pm_flexion_l	3md_flexion_l	4mcp_flexion_l	4mcp_abduction_l	4pm_flexion_l	4md_flexion_l	5mcp_flexion_l	5mcp_abduction_l	5pm_flexion_l	5md_flexion_l
-1.495000	-2.367547	-3.808797	97.590660	-0.101434	-0.189036	-0.034263	85.890021	2.231861	-1.595600	13.945065	8.350935	-21.978837	-34.389824	39.231314	10.782171	46.484610	32.536985	22.881954	5.495436	45.906825	31.966096	11.606691	-4.659429	61.116655	42.151642	5.667817	-11.269061	61.198892	42.430040
-1.485000	-2.367547	-3.808797	97.590660	-0.101439	-0.189046	-0.034274	85.887560	2.239171	-1.607068	13.930993	8.332444	-21.985107	-34.385847	39.234944	10.788654	46.475426	32.534553	22.891049	5.497710	45.896553	31.966341	11.617700	-4.659302	61.129944	42.166961	5.668141	-11.261998	61.243203	42.446024
-1.475000	-2.367547	-3.808797	97.590660	-0.101446	-0.189048	-0.034287	85.879561	2.247033	-1.609152	13.915384	8.311116	-21.997590	-34.386929	39.226345	10.790341	46.476207	32.537604	22.888874	5.501727	45.881209	31.965316	11.617865	-4.657521	61.140377	42.179036	5.667970	-11.264522	61.286028	42.455416
-1.465000	-2.367547	-3.808797	97.590660	-0.101452	-0.189045	-0.034303	85.866679	2.255432	-1.604700	13.898811	8.284690	-22.012843	-34.390376	39.208589	10.786429	46.487772	32.546323	22.879624	5.505853	45.867980	31.966497	11.610246	-4.655742	61.147912	42.187619	5.665102	-11.275029	61.324379	42.457700
-1.455000	-2.367547	-3.808797	97.590660	-0.101456	-0.189041	-0.034321	85.851741	2.264741	-1.598822	13.882436	8.251352	-22.027415	-34.393905	39.188144	10.777471	46.506724	32.558577	22.869267	5.508509	45.862231	31.971713	11.599955	-4.655586	61.154004	42.193615	5.658204	-11.289145	61.358130	42.454881
-1.445000	-2.367547	-3.808797	97.590660	-0.101459	-0.189040	-0.034339	85.837720	2.274957	-1.596695	13.867885	8.211216	-22.038885	-34.396655	39.171947	10.765150	46.527773	32.571248	22.862927	5.509063	45.866134	31.980863	11.591624	-4.657606	61.161126	42.198609	5.648228	-11.302247	61.389212	42.450135
-1.435000	-2.367547	-3.808797	97.590660	-0.101460	-0.189047	-0.034359	85.826661	2.285274	-1.601394	13.856712	8.167311	-22.046470	-34.399269	39.163885	10.751810	46.547128	32.582171	22.862777	5.508118	45.879195	31.992805	11.587822	-4.661035	61.171574	42.204021	5.638333	-11.311144	61.419386	42.445871
-1.425000	-2.367547	-3.808797	97.590660	-0.101460	-0.189060	-0.034376	85.819715	2.294322	-1.612665	13.849517	8.125227	-22.051099	-34.403131	39.162945	10.739820	46.564604	32.591344	22.867465	5.507034	45.899561	32.006498	11.588947	-4.664458	61.186047	42.210309	5.631708	-11.314247	61.448291	42.442491
-1.415000	-2.367547	-3.808797	97.590660	-0.101458	-0.189075	-0.034389	85.817344	2.300774	-1.627129	13.845260	8.091258	-22.054882	-34.409285	39.164423	10.730885	46.582718	32.600382	22.873374	5.507073	45.924708	32.021367	11.593986	-4.666792	61.202943	42.216780	5.628732	-11.310969	61.473311	42.438669
-1.405000	-2.367547	-3.808797	97.590660	-0.101455	-0.189085	-0.034394	85.819052	2.303818	-1.639767	13.841316	8.069867	-22.060076	-34.417660	39.163314	10.725549	46.603418	32.610601	22.876867	5.508752	45.951162	32.036741	11.601225	-4.667789	61.218949	42.222156	5.625983	-11.301542	61.491493	42.432826
-1.395000	-2.367547	-3.808797	97.590660	-0.101452	-0.189085	-0.034392	85.822995	2.303293	-1.645996	13.834466	8.061794	-22.068031	-34.426985	39.157335	10.723120	46.625352	32.621465	22.875955	5.511780	45.974366	32.051267	11.608448	-4.667753	61.230650	42.225486	5.618471	-11.287683	61.502036	42.424581
-1.385000	-2.367547	-3.808797	97.590660	-0.101450	-0.189074	-0.034384	85.826368	2.299620	-1.643405	13.822379	8.063651	-22.078688	-34.435448	39.147552	10.722085	46.644230	32.630837	22.870376	5.515472	45.989878	32.063206	11.612944	-4.666939	61.236185	42.226742	5.603671	-11.273271	61.507254	42.415015
-1.375000	-2.367547	-3.808797	97.590660	-0.101450	-0.189055	-0.034373	85.826885	2.293749	-1.632468	13.804640	8.069060	-22.090934	-34.441728	39.136793	10.720756	46.655981	32.636793	22.860615	5.519215	45.995479	32.071452	11.611996	-4.665253	61.235958	42.226678	5.584075	-11.263665	61.510989	42.405616
